<svg width="12" height="12" viewBox="0 0 12 12" fill="none" xmlns="http://www.w3.org/2000/svg">
<path d="M10.683 11.3667L6.83302 7.53333C6.49969 7.81111 6.11636 8.02778 5.68302 8.18333C5.24969 8.33889 4.80525 8.41667 4.34969 8.41667C3.20525 8.41667 2.23858 8.02222 1.44969 7.23333C0.660802 6.44445 0.266357 5.47778 0.266357 4.33333C0.266357 3.2 0.660802 2.236 1.44969 1.44133C2.23858 0.647111 3.20525 0.25 4.34969 0.25C5.48302 0.25 6.44414 0.644445 7.23302 1.43333C8.02191 2.22222 8.41636 3.18889 8.41636 4.33333C8.41636 4.81111 8.33858 5.26667 8.18302 5.7C8.02747 6.13333 7.81636 6.51111 7.54969 6.83333L11.3997 10.6833C11.4886 10.7722 11.533 10.8833 11.533 11.0167C11.533 11.15 11.483 11.2667 11.383 11.3667C11.283 11.4667 11.1637 11.5167 11.025 11.5167C10.8859 11.5167 10.7719 11.4667 10.683 11.3667ZM4.34969 7.41667C5.20525 7.41667 5.93036 7.11667 6.52502 6.51667C7.11925 5.91667 7.41636 5.18889 7.41636 4.33333C7.41636 3.47778 7.11925 2.75 6.52502 2.15C5.93036 1.55 5.20525 1.25 4.34969 1.25C3.48302 1.25 2.75258 1.55 2.15836 2.15C1.56369 2.75 1.26636 3.47778 1.26636 4.33333C1.26636 5.18889 1.56369 5.91667 2.15836 6.51667C2.75258 7.11667 3.48302 7.41667 4.34969 7.41667Z" fill="#5A7C8A"/>
</svg>
