<?xml version="1.0" standalone="no"?>
<!DOCTYPE svg PUBLIC "-//W3C//DTD SVG 20010904//EN"
 "http://www.w3.org/TR/2001/REC-SVG-20010904/DTD/svg10.dtd">
<svg version="1.0" xmlns="http://www.w3.org/2000/svg"
 width="300.000000pt" height="300.000000pt" viewBox="0 0 300.000000 300.000000"
 preserveAspectRatio="xMidYMid meet">
<metadata>
Created by potrace 1.10, written by Peter Selinger 2001-2011
</metadata>
<g transform="translate(0.000000,300.000000) scale(0.100000,-0.100000)"
fill="#000000" stroke="none">
<path d="M1408 2411 c-10 -14 -29 -19 -79 -23 -53 -3 -74 -9 -103 -31 -44 -34
-61 -63 -47 -80 7 -9 3 -19 -14 -35 -43 -42 -68 -110 -73 -198 l-4 -83 30 1
c30 1 30 1 34 69 3 59 8 72 33 99 16 16 33 30 38 30 6 0 33 -18 61 -39 43 -33
94 -61 112 -61 2 0 4 14 4 30 0 17 2 30 5 30 2 0 25 -13 51 -29 25 -17 69 -35
97 -41 28 -6 54 -16 58 -21 5 -8 12 -8 27 0 32 17 64 -15 64 -64 0 -45 -24
-69 -59 -60 -20 5 -23 2 -23 -26 0 -17 3 -29 8 -27 4 2 31 12 60 23 l53 20 -4
60 c-2 33 -7 70 -12 82 -6 18 -3 22 22 25 l28 3 -46 32 c-71 49 -103 97 -103
156 -1 60 -28 87 -110 113 -37 12 -58 24 -65 41 -13 28 -25 29 -43 4z m81 -73
c20 -10 41 -18 47 -18 17 0 65 -60 58 -71 -3 -6 -1 -16 6 -24 15 -19 -22 -38
-61 -33 -18 3 -28 0 -26 -6 2 -5 17 -10 33 -11 16 0 32 -4 36 -10 5 -6 8 -4 8
4 0 11 5 10 20 -4 11 -10 20 -24 20 -32 0 -8 5 -11 10 -8 9 6 14 -8 11 -28 -1
-5 3 -6 8 -3 5 3 14 -1 21 -9 7 -8 9 -15 4 -16 -5 0 -21 -3 -36 -5 -19 -3 -31
2 -42 18 -9 12 -16 17 -16 11 0 -14 -43 -8 -48 7 -3 8 -8 8 -17 0 -13 -11 -66
13 -107 48 -11 9 -18 11 -18 4 0 -20 -39 -35 -56 -21 -10 8 -14 8 -14 0 0 -6
-8 -3 -18 7 -39 36 -58 47 -82 48 -38 2 -38 2 -33 28 5 22 8 24 30 15 13 -5
36 -8 51 -8 27 2 27 2 2 6 -36 6 -80 24 -80 33 0 4 7 13 15 20 8 7 15 18 15
25 0 7 19 23 43 34 53 27 163 26 216 -1z"/>
<path d="M1322 2209 c3 -8 15 -13 30 -11 15 2 29 -2 33 -7 9 -16 25 -13 25 4
0 9 -9 15 -22 15 -13 0 -34 3 -47 7 -18 4 -22 2 -19 -8z"/>
<path d="M1795 2404 c-17 -27 -24 -27 -95 -7 l-25 7 28 -33 c29 -35 33 -60 17
-92 -15 -27 3 -23 29 7 14 16 29 24 39 21 9 -3 28 -9 42 -13 l25 -7 -24 26
c-23 26 -25 50 -6 100 11 26 -11 20 -30 -9z"/>
<path d="M1022 2352 c-9 -16 -20 -22 -33 -19 -27 7 -32 -7 -9 -28 10 -9 16
-23 14 -30 -3 -7 -1 -16 5 -20 6 -3 11 1 11 9 0 16 7 19 43 19 21 0 23 13 3
20 -8 3 -16 21 -18 39 -3 33 -3 33 -16 10z"/>
<path d="M1963 2262 c-17 -15 -34 -38 -38 -52 -7 -23 -7 -23 9 -7 20 19 32 21
41 7 10 -16 55 -12 55 5 0 14 -27 75 -33 75 -1 0 -16 -13 -34 -28z"/>
<path d="M1904 2075 c-16 -50 -28 -97 -26 -103 6 -18 39 -14 45 6 3 9 17 48
31 87 32 85 32 92 4 97 -21 4 -26 -4 -54 -87z"/>
<path d="M810 2045 c0 -29 -6 -39 -30 -53 -39 -22 -38 -32 6 -32 31 0 37 -4
50 -35 19 -45 32 -45 31 1 -1 30 5 42 33 67 l35 29 -38 -6 c-35 -7 -38 -5 -58
29 -12 19 -23 35 -25 35 -2 0 -4 -16 -4 -35z"/>
<path d="M1453 2033 c-22 -15 -32 -43 -15 -43 9 1 62 47 62 55 0 10 -25 4 -47
-12z"/>
<path d="M1260 2017 c0 -11 51 -37 73 -37 19 0 3 20 -27 34 -41 19 -46 20 -46
3z"/>
<path d="M1450 1955 c0 -18 5 -25 20 -25 24 0 28 35 4 44 -23 9 -24 8 -24 -19z"/>
<path d="M2098 1964 c-13 -14 -22 -15 -47 -6 -35 12 -41 0 -10 -21 18 -13 19
-18 8 -36 -17 -27 -4 -39 20 -17 13 12 27 15 47 10 29 -7 29 -7 10 14 -13 15
-16 29 -12 47 7 29 6 30 -16 9z"/>
<path d="M1292 1933 c2 -17 9 -28 18 -28 23 0 23 32 0 45 -20 11 -21 9 -18
-17z"/>
<path d="M1937 1932 c2 -10 -4 -37 -14 -61 -13 -31 -26 -44 -48 -50 -25 -8
-26 -9 -7 -10 13 -1 36 6 52 14 25 13 30 22 32 55 0 22 1 45 2 52 1 6 -4 13
-11 15 -7 3 -10 -3 -6 -15z"/>
<path d="M1075 1900 c0 -15 6 -33 13 -39 9 -9 12 -6 12 17 0 16 -6 34 -12 40
-10 8 -13 4 -13 -18z"/>
<path d="M1768 1899 c-25 -14 -22 -29 6 -29 34 0 42 -30 14 -52 -13 -10 -31
-18 -41 -18 -10 0 -15 -4 -12 -10 3 -6 -1 -7 -9 -4 -9 3 -16 1 -16 -5 0 -7 -8
-14 -17 -18 -10 -3 -37 -24 -60 -45 -24 -21 -68 -50 -99 -65 -32 -15 -53 -28
-47 -30 5 -2 34 8 64 22 30 13 59 25 66 25 6 0 17 -16 24 -35 7 -19 17 -35 21
-35 5 0 8 -6 7 -12 -1 -7 0 -20 4 -28 12 -33 27 -116 23 -135 -3 -11 -5 -23
-5 -27 -1 -4 -8 -14 -17 -22 -14 -14 -18 -14 -46 0 -16 8 -32 13 -35 11 -2 -3
5 -10 16 -17 12 -6 21 -19 21 -30 0 -28 15 -32 43 -10 31 25 110 29 101 5 -8
-19 -5 -19 37 3 19 9 59 26 89 37 50 18 55 23 55 50 0 29 -1 30 -49 29 -46 0
-53 -4 -87 -43 -31 -36 -43 -44 -76 -45 l-40 -2 14 34 c9 23 12 49 8 76 -12
69 -46 160 -71 187 -13 14 -24 28 -24 31 0 4 42 29 93 57 50 28 98 54 105 59
9 6 9 18 -4 55 -16 48 -26 54 -56 36z"/>
<path d="M1143 1843 c-30 -6 -29 -18 6 -79 20 -34 42 -57 65 -68 59 -28 79 3
27 42 -16 11 -39 41 -51 66 -12 25 -23 45 -23 45 -1 -1 -12 -4 -24 -6z"/>
<path d="M1545 1824 c-51 -19 -72 -38 -30 -28 38 9 95 33 95 39 0 8 -23 4 -65
-11z"/>
<path d="M1378 1813 c-19 -5 -23 -20 -9 -41 6 -11 13 -11 27 -3 11 6 31 15 47
21 15 5 27 14 27 20 0 10 -59 12 -92 3z"/>
<path d="M1314 1735 c-26 -19 1 -20 36 0 23 13 23 14 4 15 -11 0 -29 -7 -40
-15z"/>
<path d="M878 1701 c-12 -16 -23 -22 -37 -18 -25 6 -26 0 -4 -25 13 -15 14
-23 5 -43 -14 -30 -2 -33 22 -6 13 14 26 18 49 14 l32 -5 -22 24 c-12 12 -23
37 -25 53 l-3 30 -17 -24z"/>
<path d="M1011 1638 c-37 -50 -38 -63 -10 -79 36 -19 209 14 209 40 0 15 -33
22 -41 10 -4 -6 -12 -8 -18 -5 -6 4 -16 4 -23 0 -6 -4 -23 -8 -37 -10 -14 -1
-38 -5 -53 -9 -37 -10 -36 5 2 48 34 39 36 47 16 47 -8 0 -28 -19 -45 -42z"/>
<path d="M1298 1667 c-34 -6 -59 -16 -63 -25 -8 -22 -1 -24 31 -7 16 8 36 15
44 15 8 1 26 7 40 15 28 16 27 16 -52 2z"/>
<path d="M1960 1644 c11 -29 6 -41 -27 -67 -32 -26 -29 -37 11 -30 33 5 38 2
72 -42 14 -19 14 -17 9 22 -6 37 -4 43 19 58 35 23 33 36 -4 29 -26 -6 -32 -2
-47 25 -23 39 -47 43 -33 5z"/>
<path d="M1280 1600 c-8 -5 -25 -10 -36 -10 -34 0 -36 -42 -12 -204 3 -17 -6
-18 -117 -18 -81 0 -127 -4 -141 -13 -11 -7 -38 -40 -60 -73 -27 -42 -47 -63
-66 -67 -25 -6 -46 -37 -39 -59 1 -5 -12 -26 -29 -47 -30 -38 -42 -101 -21
-113 5 -3 293 -6 641 -7 470 0 635 3 646 12 23 19 16 57 -20 96 -24 27 -33 46
-31 65 4 31 -21 58 -55 61 -12 1 -26 11 -30 22 -11 29 -79 103 -80 87 0 -8 16
-33 35 -56 40 -49 43 -60 15 -51 -22 7 -60 -2 -60 -14 0 -16 116 -85 140 -83
19 1 31 -9 53 -42 52 -83 105 -76 -608 -76 l-635 0 0 25 c0 14 12 43 26 65 20
31 33 40 54 40 15 0 34 7 41 17 8 9 29 22 47 30 40 17 33 33 -14 33 -41 0 -42
5 -6 40 15 15 38 42 51 59 l23 31 139 0 c86 0 139 4 139 10 0 6 7 10 15 10 8
0 15 -4 15 -10 0 -5 5 -10 11 -10 5 0 7 5 4 11 -5 7 20 9 79 5 94 -7 126 2
126 34 0 23 -15 27 -24 5 -7 -18 -81 -21 -92 -4 -5 8 -10 7 -16 -4 -6 -11 -23
-16 -58 -15 -42 0 -52 4 -67 26 -33 50 -23 171 14 172 4 0 17 7 27 15 23 17 1
21 -24 5z m675 -410 c1 -3 -3 -10 -10 -17 -10 -9 -18 -8 -36 8 l-23 20 33 -3
c18 -1 34 -5 36 -8z"/>
<path d="M1560 1560 c0 -5 9 -33 20 -61 19 -48 20 -53 4 -70 -9 -10 -25 -21
-35 -24 -11 -4 -17 -10 -14 -15 13 -22 75 22 75 53 0 29 -32 127 -42 127 -4 0
-8 -4 -8 -10z"/>
<path d="M897 1462 c-36 -39 -15 -56 83 -66 l65 -7 -40 40 c-49 49 -84 60
-108 33z"/>
<path d="M1182 1274 c-18 -31 -32 -60 -32 -65 0 -5 -11 -32 -25 -59 -14 -27
-25 -51 -25 -54 0 -8 611 -3 616 5 7 11 -86 199 -98 199 -5 0 -6 -5 -3 -10 4
-6 1 -17 -5 -25 -9 -11 -9 -15 -1 -15 6 0 11 6 11 13 1 12 79 -131 80 -145 0
-5 -128 -8 -285 -8 -157 0 -285 3 -285 6 0 3 14 36 31 72 17 37 38 81 45 99
l14 32 128 4 127 3 -130 2 -131 2 -32 -56z"/>
<path d="M1256 1281 c-3 -9 -9 -22 -12 -28 -3 -8 2 -13 13 -13 11 0 25 -6 32
-12 11 -10 14 -10 18 0 3 6 13 12 24 12 21 0 24 18 6 40 -17 21 -74 22 -81 1z"/>
<path d="M1394 1279 c-14 -16 -14 -18 6 -29 27 -14 60 -4 60 20 0 25 -45 32
-66 9z"/>
<path d="M1518 1221 c-21 -21 -23 -41 -4 -41 7 0 16 -9 19 -20 5 -21 31 -27
42 -10 3 6 15 10 26 10 18 0 20 4 14 33 -9 38 -3 33 -45 40 -26 4 -40 1 -52
-12z"/>
<path d="M1367 1187 c-14 -22 -14 -25 4 -40 11 -10 32 -16 51 -14 29 2 33 6
33 30 1 32 1 32 -41 41 -26 6 -34 3 -47 -17z"/>
<path d="M1205 1192 c-13 -14 -4 -50 15 -55 38 -10 61 3 57 31 -3 22 -9 27
-35 28 -17 1 -34 -1 -37 -4z"/>
<path d="M1635 1151 c-8 -15 3 -31 21 -31 9 0 14 7 12 17 -4 20 -24 28 -33 14z"/>
<path d="M940 1060 l-125 -6 164 -2 c90 -1 162 0 160 2 -10 8 -84 11 -199 6z"/>
<path d="M1195 1059 c-43 -5 -39 -6 33 -7 45 -1 82 0 82 2 0 8 -67 11 -115 5z"/>
<path d="M1350 1058 c0 -5 28 -8 62 -8 34 0 59 3 55 6 -9 9 -117 10 -117 2z"/>
<path d="M1724 1059 c-2 -4 60 -8 138 -8 78 -1 140 0 137 3 -8 8 -270 12 -275
5z"/>
<path d="M968 910 c-23 -59 -37 -100 -33 -100 2 0 -3 -16 -11 -35 -19 -46 -18
-55 6 -55 13 0 22 9 26 26 6 22 11 25 48 22 34 -2 42 -7 44 -25 3 -18 10 -23
34 -23 26 0 29 2 18 15 -7 8 -10 15 -6 15 3 0 -4 24 -15 53 -12 28 -27 70 -34
91 -10 33 -16 40 -39 41 -21 0 -31 -5 -38 -25z m52 -56 c16 -41 12 -54 -16
-54 -22 0 -25 3 -20 23 3 12 6 30 6 40 0 26 19 21 30 -9z"/>
<path d="M1116 933 c-2 -3 6 -35 19 -73 13 -38 21 -71 18 -74 -3 -3 -1 -11 5
-18 10 -13 12 -18 12 -38 0 -5 11 -10 24 -10 26 0 35 15 42 70 8 65 23 87 30
47 17 -86 30 -117 49 -117 17 0 25 13 44 71 13 40 25 89 27 110 4 33 2 39 -15
39 -15 0 -22 -12 -32 -52 -7 -29 -12 -63 -11 -76 1 -15 -3 -22 -10 -20 -7 3
-14 18 -15 34 -3 37 -28 110 -37 107 -3 -2 -12 -3 -19 -3 -8 0 -18 -24 -26
-63 -18 -89 -28 -101 -37 -41 -4 27 -7 53 -6 58 2 4 -2 14 -8 20 -5 7 -7 15
-4 18 2 3 -6 8 -20 10 -14 3 -27 3 -30 1z"/>
<path d="M520 825 l0 -105 56 0 c50 0 59 3 90 34 38 38 44 77 19 126 -20 40
-43 50 -109 50 l-56 0 0 -105z m120 46 c12 -23 13 -71 2 -89 -5 -7 -25 -15
-45 -19 l-37 -6 0 67 0 66 35 0 c24 0 37 -6 45 -19z"/>
<path d="M730 825 l0 -105 26 0 c25 0 26 2 21 39 -4 34 -2 39 13 38 11 -1 26
-17 36 -39 13 -28 23 -38 41 -38 28 0 28 0 3 46 -19 33 -20 38 -5 53 21 24 19
74 -3 94 -13 12 -37 17 -75 17 l-57 0 0 -105z m110 40 c0 -23 -17 -35 -48 -35
-13 0 -17 8 -15 32 1 18 2 33 2 34 1 0 15 -1 31 -4 23 -3 30 -9 30 -27z"/>
<path d="M1420 825 l0 -105 25 0 25 0 0 105 0 105 -25 0 -25 0 0 -105z"/>
<path d="M1500 825 l0 -105 26 0 26 0 -7 65 c-4 36 -3 65 1 65 5 0 27 -29 49
-65 28 -45 46 -64 61 -65 20 0 21 5 21 105 0 104 0 105 -23 105 -23 0 -24 -3
-24 -67 l0 -68 -45 68 c-31 45 -52 67 -65 67 -19 0 -20 -7 -20 -105z"/>
<path d="M1732 914 c-14 -10 -22 -25 -22 -44 0 -31 25 -50 83 -64 20 -5 27
-12 25 -24 -4 -23 -56 -29 -64 -8 -7 18 -54 22 -54 6 0 -23 50 -60 80 -60 97
0 118 96 26 122 -53 15 -62 23 -46 43 16 19 34 19 54 0 18 -19 46 -20 46 -2 0
42 -84 62 -128 31z"/>
<path d="M1900 825 c0 -98 1 -105 20 -105 19 0 20 7 20 105 0 98 -1 105 -20
105 -19 0 -20 -7 -20 -105z"/>
<path d="M2005 905 c-28 -27 -34 -67 -20 -132 6 -24 51 -53 84 -53 50 0 91 41
91 90 0 15 -7 20 -29 20 -16 0 -36 3 -45 6 -12 4 -16 0 -16 -15 0 -16 6 -21
25 -21 27 0 32 -9 13 -28 -17 -17 -54 -15 -72 4 -19 18 -21 85 -4 102 17 17
67 15 74 -3 7 -17 54 -21 54 -5 0 6 -11 22 -25 35 -18 19 -35 25 -65 25 -30 0
-47 -6 -65 -25z"/>
<path d="M2190 825 c0 -104 0 -106 22 -103 20 3 22 8 20 46 l-4 42 46 0 46 0
0 -45 c0 -41 2 -45 25 -45 l25 0 0 105 0 105 -25 0 c-23 0 -25 -4 -25 -42 l0
-43 -46 -1 -45 -1 3 41 c2 36 0 41 -20 44 -22 3 -22 1 -22 -103z"/>
<path d="M2392 913 c2 -12 13 -18 33 -18 l30 -1 3 -87 c3 -79 5 -87 22 -87 18
0 20 7 20 85 l0 85 35 0 c28 0 35 4 35 20 0 19 -7 20 -91 20 -81 0 -90 -2 -87
-17z"/>
<path d="M1030 570 c0 -33 4 -60 10 -60 6 0 10 11 10 25 0 20 5 25 25 25 20 0
25 -5 25 -25 0 -14 5 -25 10 -25 6 0 10 27 10 60 0 33 -4 60 -10 60 -5 0 -10
-11 -10 -25 0 -20 -5 -25 -25 -25 -20 0 -25 5 -25 25 0 14 -4 25 -10 25 -6 0
-10 -27 -10 -60z"/>
<path d="M1230 572 l0 -60 38 1 c33 2 37 5 40 30 4 35 -15 59 -40 51 -15 -4
-19 -1 -16 12 2 9 -3 19 -9 21 -10 3 -13 -12 -13 -55z m57 -8 c8 -20 -13 -42
-27 -28 -12 12 -3 44 11 44 5 0 12 -7 16 -16z"/>
<path d="M1450 571 c0 -49 3 -61 16 -61 10 0 14 7 12 23 -2 16 3 23 20 25 18
3 22 -1 22 -22 0 -16 6 -26 14 -26 12 0 14 13 13 58 -2 56 -19 79 -25 35 -4
-30 -39 -31 -44 -1 -2 12 -9 23 -15 26 -10 3 -13 -13 -13 -57z"/>
<path d="M1845 620 c-3 -5 -3 -14 0 -20 4 -6 -3 -9 -16 -7 -27 3 -44 -23 -35
-56 5 -23 12 -27 41 -27 l35 0 0 60 c0 55 -10 75 -25 50z m2 -56 c8 -21 -13
-42 -28 -27 -13 13 -5 43 11 43 6 0 13 -7 17 -16z"/>
<path d="M1158 589 c-22 -12 -23 -52 -3 -69 16 -14 47 -10 52 6 2 7 -6 10 -22
7 -15 -3 -25 -1 -25 6 0 6 14 11 30 11 33 0 38 11 14 34 -18 19 -23 19 -46 5z"/>
<path d="M1343 593 c-21 -8 -14 -25 7 -18 11 4 20 2 20 -4 0 -6 -6 -11 -13
-11 -19 0 -36 -20 -30 -36 3 -8 19 -14 39 -14 32 0 34 2 34 33 0 46 -21 65
-57 50z"/>
<path d="M1583 593 c-21 -8 -14 -25 7 -18 11 3 20 2 20 -4 0 -5 -10 -11 -22
-13 -15 -2 -23 -10 -23 -23 0 -15 8 -21 33 -23 31 -3 32 -2 32 36 0 27 -5 42
-16 46 -9 3 -16 6 -17 5 -1 0 -8 -3 -14 -6z"/>
<path d="M1650 553 c0 -32 4 -43 15 -43 11 0 15 11 15 36 0 21 4 33 10 29 6
-3 10 -19 10 -36 0 -17 5 -29 13 -29 7 0 12 12 12 30 0 40 19 43 23 3 5 -49
24 -40 20 9 l-3 42 -57 1 -58 1 0 -43z"/>
<path d="M1903 593 c-21 -8 -14 -25 7 -18 11 3 20 2 20 -3 0 -5 -9 -12 -20
-15 -12 -3 -20 -14 -20 -26 0 -17 6 -21 35 -21 33 0 35 2 35 33 0 46 -21 65
-57 50z"/>
<path d="M1980 553 c0 -50 17 -58 22 -10 2 17 8 32 13 32 6 0 11 -15 13 -32 4
-41 32 -46 32 -5 0 40 -15 57 -50 57 -29 1 -30 -1 -30 -42z"/>
</g>
</svg>
